<?xml version="1.0" encoding="UTF-8"?>
<svg version="1.1" viewBox="0 0 1080 1080" width="1080" height="1080" xmlns="http://www.w3.org/2000/svg">
<path transform="translate(506,148)" d="m0 0h55l38 2 36 4 39 6 27 6 31 8 29 9 31 12 26 12 20 10 17 10 25 17 14 11 13 11 8 7 14 14 9 11 13 18 12 21 7 16 6 18 4 21 1 8v24l-4 26-6 20-7 17-10 18-12 17-8 10-9 10-8 9-8 7-11 10-20 15-18 12-19 11-22 12-29 13-26 10-35 11-40 10-38 7-29 4-33 3-17 1h-72l-41-3-48-7-38-8-31-8-36-12-24-9-28-13-23-12-21-13-17-12-13-10-12-11-8-7-13-13-18-22-13-21-11-23-6-18-4-20-1-8v-28l4-24 6-20 8-18 10-18 10-14 13-16 2-3h2l2-4 16-16 11-9 15-12 21-14 25-15 17-9 22-10 36-14 32-10 32-8 24-5 44-7 29-3zm0 26-34 3-26 4-28 6-30 8-28 10-27 12-25 13-14 9-17 12-10 8-13 11-7 6-3 3v2l-4 2-1 3h-2l-11 14-10 13-9 15-8 15-9 25-4 19-2 19v16l3 23 5 19 6 16 8 16 8 14 9 12 13 16 19 19h2v2l14 11 12 9 15 10 25 14 16 8 21 9 27 10 38 10 26 5 19 3 34 3h69l32-3 34-6 30-7 26-8 25-9 30-14 22-12 11-7 17-12 10-8 10-9 8-7 13-13 9-11 9-12 9-15 8-16 7-18 5-21 3-21v-19l-4-27-7-23-12-26-11-17-10-13-9-10-7-8-9-9-11-9-17-13-15-10-24-14-22-11-27-11-27-9-31-8-26-5-29-4-29-2z" fill="#FEFEFE"/>
<path transform="translate(461,319)" d="m0 0h167l27 2 20 3 23 7 21 10 15 10 13 11 9 9 12 17 11 23 5 16 3 14 1 8v36l-3 19-4 15-6 15-11 19-9 11-10 11-14 11-13 8-16 8-21 7-23 5-9 1-106 1h-84l-1-2v-294zm44 38v221h131l21-3 16-5 17-8 13-9 12-11 6-7 9-15 6-15 4-16 1-8v-28l-3-16-5-15-8-16-9-12-10-10-13-9-17-9-14-5-21-3-102-1z" fill="#FEFEFE"/>
<path transform="translate(124,697)" d="m0 0h44l15 3 15 5 16 8 11 8 11 11 2 1v-33h101l26 2 15 4 16 8 9 6 10 9 7 8 9 17 4 13 12-24 10-13 7-7 16-11 19-9 13-4 12-2h41l15 3 15 5 17 9 13 10 11 11 9 15 4 10 5 16 1 5v17l-3 16-6 15-10 15-13 13-10 7-11 6-13 6-22 5-7 1h-33l-17-3-13-4-14-6-11-7-14-12-10-12-11-21-2-5-2 6-4 11-6 11-7 9-4 5-13 10-16 8-17 5-16 2h-112l-1-2v-30l-1 1-10 9-8 6-14 8-19 7-24 4h-34l-22-4-20-8-11-6-10-8-8-7-9-11-8-14-5-13-2-8v-26l4-15 8-16 9-13 5-5 8-7 14-9 16-8 17-5zm11 24-19 3-16 6-10 5-11 9-8 8-7 11-5 13-1 6v17l4 13 6 11 12 13 13 9 14 7 15 4 14 2h19l20-3 15-5 14-8 9-7 3-4 5 1 8 7 7 6h2v-111l-4 2-10 8-4 5-5-2-8-8-13-8-15-6-13-3-10-1zm396 0-17 3-15 6-11 7-10 9-8 9-8 16-3 13v11l4 17 8 14 9 10 14 10 15 7 15 4 8 1h25l20-4 15-7 11-7 12-11 7-10 5-12 2-9v-15l-4-16-7-13-11-12-13-9-15-7-14-4-7-1zm-265 2-1 9v122l1 2h86l13-3 16-8 12-10 7-10 5-10 3-12v-26l-3-12-7-14-9-10-7-6-16-8-13-3-8-1z" fill="#FEFEFE"/>
<path transform="translate(443,206)" d="m0 0h23l25 2 24 4 21 6 23 10 15 9 12 9 10 9 8 7 3 3v5l-10 8-11 9-7 7-3 1-13-13-15-11-21-11-21-7-21-4-13-1h-29l-21 2-21 5-16 6-16 8-12 8-10 8-12 12-7 10-10 19-5 17-1 8v20l4 18 5 12 8 14 8 10 9 10 15 11 16 9 15 7 20 6 24 4 11 2 1 2v36l-1 2h-12l-26-4-25-6-25-10-15-8-11-7-10-8-10-9-6-5-9-11-8-11-9-16-8-20-4-17-1-9v-25l3-18 5-17 11-23 9-13 11-13 13-13 13-10 15-9 16-8 18-7 13-4 26-5z" fill="#FEFEFE"/>
<path transform="translate(724,697)" d="m0 0h47l19 3 21 5 17 6 17 9 1 5-7 10-5 9-4-1-12-7-21-7-24-5-7-1h-44l-19 4-16 6-10 9-1 2 1 9 5 7 13 7 16 4 33 5 49 7 21 5 16 7 10 7 7 7 5 10 1 3v12l-4 12-7 9-8 8-15 8-15 5-23 5-9 1h-38l-23-3-22-5-21-7-13-7-3-3 2-6 4-5 6-11h5l9 6 16 6 18 5 25 4 10 1h19l22-3 15-4 9-4 8-5h2v-2l4-4 1-6-4-8-7-6-14-5-19-4-65-9-25-5-19-7-10-7-6-5-7-11-1-3v-18l4-11 9-10 8-6 16-8 15-5z" fill="#FEFEFE"/>
<path transform="translate(926,700)" d="m0 0h36l5 4 13 27 10 19 57 114 7 15-2 1-28-1-6-9-14-29-2-2h-115l-19 38-2 2h-31l6-12 9-16 16-34 20-40 10-19 8-16 19-39zm17 25-7 14-11 23-10 19-10 20-7 12v3h92l1-2-27-54-10-19-8-16z" fill="#FEFEFE"/>
<path transform="translate(574,426)" d="m0 0 5 1 6 5 5 5 10 8 7 6-1 5-15 15-15 11-17 10-20 9-18 6-4-1v-38l2-4 18-8 16-10 13-11 6-7h2z" fill="#FEFEFE"/>
<path transform="translate(508,984)" d="m0 0h17l8 3 5 6 2 5v11l-3 8-6 5-6 2h-17zm5 4v32h11l6-3 4-4 1-3v-12l-3-6-4-3-4-1z" fill="#FEFEFE"/>
<path transform="translate(338,906)" d="m0 0h17l8 3 5 6 2 5v11l-3 8-6 5-6 2h-17zm5 4v32h11l6-3 4-4 1-3v-12l-3-6-4-3-4-1z" fill="#FEFEFE"/>
<path transform="translate(771,905)" d="m0 0 10 2 6 5 3 8v12l-3 7-5 5-4 2h-13l-6-4-4-5-1-3v-16l3-6 6-5zm-5 5-5 4-3 8v8l3 8 5 4 7 1 7-2 4-5 1-3v-14l-4-7-3-2z" fill="#FEFEFE"/>
<path transform="translate(252,906)" d="m0 0h17l8 4 5 6 1 3v14l-4 7-5 4-6 2h-16zm4 4v32h11l8-4 3-5v-14l-4-6-7-3z" fill="#FEFEFE"/>
<path transform="translate(669,906)" d="m0 0h17l7 3 5 5 2 4 1 10-3 10-7 6-6 2h-16zm4 4v32h12l6-3 4-6 1-3v-8l-3-7-5-4-3-1z" fill="#FEFEFE"/>
<path transform="translate(886,904)" d="m0 0h5v42h-4l-1-3-4 3h-10l-6-5-2-11 2-8 4-5 2-1h10l3 2zm-11 15-5 5-1 2v10l3 5 3 2 8-1 3-4v-13l-2-4-4-2z" fill="#FEFEFE"/>
<path transform="translate(476,904)" d="m0 0h5v11l-1 4 5-3h10l5 4 2 4v14l-4 6-3 2h-10l-4-3-2 3h-3zm11 15-5 3-1 2v14l3 4 8 1 5-5 1-3v-8l-3-6-4-2z" fill="#FEFEFE"/>
<path transform="translate(453,984)" d="m0 0h5l15 38v2h-5l-5-12-16-1-3 10-1 3h-5l3-9zm2 6-6 17h13l-6-17z" fill="#FEFEFE"/>
<path transform="translate(640,984)" d="m0 0h5l11 31 5-12 7-19h5l-8 24-6 16h-5l-9-24-5-14z" fill="#FEFEFE"/>
<path transform="translate(402,984)" d="m0 0h14l3 1-1 4h-14l-3 3 1 6 16 8 2 3v8l-2 4-5 3h-16l-2-1v-4l12 1 7-1 1-7-4-4-12-6-3-4v-8l4-5z" fill="#FEFEFE"/>
<path transform="translate(298,916)" d="m0 0h10l5 4 2 4v8h-20l2 7 2 2 8 1 7-1v4l-3 1h-13l-6-5-2-5v-10l3-6zm3 3-4 2-2 3v4h15v-5l-5-4z" fill="#FEFEFE"/>
<path transform="translate(555,994)" d="m0 0h10l5 4 2 5v7h-21l3 7 5 3 12-1-1 4-2 1h-13l-6-5-2-4v-12l4-6zm3 3-5 3-2 6h16l-1-6-4-3z" fill="#FEFEFE"/>
<path transform="translate(907,916)" d="m0 0h10l5 4 2 5v7h-21l3 7 5 3 12-1-1 4-2 1h-13l-6-5-2-4v-12l4-6zm3 3-5 3-2 6h16l-1-6-4-3z" fill="#FEFEFE"/>
<path transform="translate(992,916)" d="m0 0h10l6 5 1 2v9h-20l3 8 5 2 11-1v4l-2 1h-13l-6-4-3-7v-7l3-8zm3 3-5 4-1 5h16l-2-7-4-2z" fill="#FEFEFE"/>
<path transform="translate(716,916)" d="m0 0h10l5 5 2 6v5h-21l3 8 5 2 11-1v4l-2 1h-13l-5-3-3-5-1-7 2-9 5-5zm2 3-5 4-1 5h16l-1-6-4-3z" fill="#FEFEFE"/>
<path transform="translate(101,916)" d="m0 0h10l5 5 2 6v5h-21l3 8 5 2 11-1v4l-2 1h-13l-5-3-3-5-1-7 2-9 5-5zm2 3-5 4-1 5h16l-1-6-4-3z" fill="#FEFEFE"/>
<path transform="translate(70,906)" d="m0 0h14l3 1-1 4h-15l-4 2-3 5-1 4v9l4 8 4 2h15v4l-2 1h-15l-7-4-4-7-1-5v-8l3-9 7-6z" fill="#FEFEFE"/>
<path transform="translate(606,984)" d="m0 0h14l3 3-1 2h-15l-5 3-3 6v12l3 6 4 3h16v4l-2 1h-15l-6-3-4-5-2-6v-11l3-8 7-6z" fill="#FEFEFE"/>
<path transform="translate(592,916)" d="m0 0h11l6 5 2 5v10l-3 6-5 4h-11l-6-5-2-4v-12l3-6zm3 3-5 3-2 6 1 10 4 4 7 1 5-4 2-9-2-7-3-3z" fill="#FEFEFE"/>
<path transform="translate(209,916)" d="m0 0h11l6 5 2 5v10l-3 6-5 4h-11l-6-5-2-4v-12l3-6zm3 3-5 3-2 6 1 10 4 4 7 1 5-4 2-9-2-7-3-3z" fill="#FEFEFE"/>
<path transform="translate(619,916)" d="m0 0h4v3l6-3h10l5 5v25h-4l-1-22-4-4-9 1-1 4-1 21h-5z" fill="#FEFEFE"/>
<path transform="translate(125,916)" d="m0 0h4v3l6-3h10l5 5v25h-4l-1-22-4-4-9 1-1 4-1 21h-5z" fill="#FEFEFE"/>
<path transform="translate(510,916)" d="m0 0 5 1 1 23 3 2 8-1 2-3 1-5 1-17h4v30h-4v-3l-5 3h-11l-4-4-1-2z" fill="#FEFEFE"/>
<path transform="translate(932,916)" d="m0 0 4 1 1 2 4-3h10l5 4 1 3v23h-5l-1-24-3-2-8 1-2 2-1 4-1 19h-4z" fill="#FEFEFE"/>
<path transform="translate(396,916)" d="m0 0h12l3 1-1 4-11-1-3 1 1 5 12 6 3 4-1 6-3 3-2 1h-13l-2-1v-4l13 1 3-3-2-4-12-6-2-2v-7z" fill="#FEFEFE"/>
<path transform="translate(968,909)" d="m0 0h3v7h9v3h-9l1 23 8 1v3h-10l-3-3-1-5v-19h-4v-2l4-2z" fill="#FEFEFE"/>
<path transform="translate(421,909)" d="m0 0h3v7h9v3h-9l1 23 8 1v3h-10l-3-3-1-5v-19h-4v-2l4-2z" fill="#FEFEFE"/>
<path transform="translate(805,916)" d="m0 0h12l1 4-2 1-6-1-5 2-2 3v12l3 4 7 1 5-1-1 5h-12l-6-5-2-5v-10l3-6z" fill="#FEFEFE"/>
<path transform="translate(551,916)" d="m0 0h12l1 4-2 1-6-1-5 2-2 3v12l3 4 7 1 5-1-1 5h-12l-6-5-2-5v-10l3-6z" fill="#FEFEFE"/>
<path transform="translate(162,909)" d="m0 0h3v7h8v3h-8l1 22 8 2-1 3h-9l-3-3-1-3v-21h-4v-2l4-2z" fill="#FEFEFE"/>
<path transform="translate(832,916)" d="m0 0h11l2 2-2 3-6-1-6 2-2 5v9l3 5 7 1 5-1 1 4-2 1h-12l-5-4-2-4-1-8 2-8 5-5z" fill="#FEFEFE"/>
<path transform="translate(439,916)" d="m0 0h4v4l6-4h7v4l-9 2-2 3-1 21h-5z" fill="#FEFEFE"/>
<path transform="translate(180,916)" d="m0 0h3l2 4 4-4h8l-1 4-7 1-3 3-1 3-1 19h-4z" fill="#FEFEFE"/>
<path transform="translate(571,916)" d="m0 0h5v30h-5z" fill="#FEFEFE"/>
<path transform="translate(378,916)" d="m0 0h5v30h-5z" fill="#FEFEFE"/>
<path transform="translate(852,916)" d="m0 0h4v30h-4z" fill="#FEFEFE"/>
<path transform="translate(462,916)" d="m0 0h4v30h-4z" fill="#FEFEFE"/>
<path transform="translate(1017,940)" d="m0 0h5l-2 9-2 4-4-1z" fill="#FEFEFE"/>
<path transform="translate(599,903)" d="m0 0h5l-2 4-5 5h-3l2-5z" fill="#FEFEFE"/>
<path transform="translate(678,1018)" d="m0 0h5l1 4-2 3-4-1-1-5z" fill="#FEFEFE"/>
<path transform="translate(428,1018)" d="m0 0h5l1 4-2 3-4-1-1-5z" fill="#FEFEFE"/>
<path transform="translate(478,1018)" d="m0 0h5l1 5-2 2-4-1-1-3z" fill="#FEFEFE"/>
<path transform="translate(630,1018)" d="m0 0h5v6l-4 1-2-2z" fill="#FEFEFE"/>
<path transform="translate(572,905)" d="m0 0 4 1-1 5-4-1z" fill="#FEFEFE"/>
<path transform="translate(379,905)" d="m0 0 4 1-1 5-4-1z" fill="#FEFEFE"/>
<path transform="translate(853,905)" d="m0 0h3l1 4-4 2-1-5z" fill="#FEFEFE"/>
<path transform="translate(463,905)" d="m0 0h3l1 4-4 2-1-5z" fill="#FEFEFE"/>
</svg>
