<?xml version="1.0" encoding="UTF-8"?>
<svg version="1.1" viewBox="0 0 900 900" width="225" height="225" xmlns="http://www.w3.org/2000/svg">
<path transform="translate(0)" d="m0 0h900v900h-900z"/>
<path transform="translate(44,510)" d="m0 0h811l1 1 1 62-1 7h-812l-1-1v-62z" fill="#A21215"/>
<path transform="translate(405,341)" d="m0 0h117l13 3 12 6 7 7 5 10 1 12-2 9-6 11-8 8-9 5 9 6 6 10 1 3v17l-4 12-4 6-5 6-11 7-14 5-14 3h-153l2-13 13-72 2-5h138l8-3 2-3v-7l-3-3-5-1-136-1 2-4 17-16 12-12z" fill="#FDFFFF"/>
<path transform="translate(224,338)" d="m0 0h10l8 2 9 6 8 11 15 29 12 22 30 56 11 20v3h-176l2-4 8-8 7-8 15-16 5-3h61l-14-26-15-29h-3l-11 12-7 8-12 13-7 7-7 8-15 16-7 8-12 13-8 9h-56l2-4 7-8 15-16 10-10 7-8 9-10 11-12 15-16 9-9 9-11 16-17 7-8 8-8 10-7 9-4z" fill="#FDFFFF"/>
<path transform="translate(573,340)" d="m0 0 57 1 5 8 18 35 10 19 17 32h3l9-11 16-17 9-10 11-11 7-8 18-20 7-8 9-9 55-1v4l-10 10-7 8-8 8-7 8-14 15-7 8-29 31-15 16-7 8-11 12-12 12-11 7-7 2h-18l-10-5-7-8-13-24-16-30-12-22-15-28-14-26-2-5z" fill="#FDFFFF"/>
<path transform="translate(405,429)" d="m0 0 93 1 4 2 2 4-1 6-4 5-7 2h-90l-1-3 3-16z"/>
<path transform="translate(488,529)" d="m0 0h29l-2 5-1 1-23 1-1 3h20l5 1 1 7-2 5-7 3h-27l-1-3 4-3 25-1v-4h-23l-3-3v-6l2-4z" fill="#FDFFFF"/>
<path transform="translate(376,529)" d="m0 0h26l4 2 1 2v8l-5 4-1 3 4 6-1 1h-9l-3-3-2-3h-13l-1 5-2 1h-6l-1-5 3-8 10-1h14l3-1 1-4h-25l-1-2z" fill="#FDFFFF"/>
<path transform="translate(195,529)" d="m0 0h29l-2 6-1 1h-19v3h19l-1 5-20 1v3h20l1 2-2 4-3 1h-25l-1-5 4-20z" fill="#FDFFFF"/>
<path transform="translate(263,529)" d="m0 0h30l-2 5-3 2h-17l-1 3h19l-1 5-10 1h-7l-2 2 1 1h19l-1 6-3 1h-26v-7z" fill="#FDFFFF"/>
<path transform="translate(525,529)" d="m0 0h6l1 3-2 16h13l4-1 2-8 1-9 1-1h7l1 1-1 12-5 10-8 3h-17l-5-3-2-3v-12l2-7z" fill="#FDFFFF"/>
<path transform="translate(569,529)" d="m0 0h25l4 2 1 3v7l-5 6-6 2h-17l-1 5-2 1h-6l-2-4 3-8 1-2h25l1-3-1-2h-22l-1-3z" fill="#FDFFFF"/>
<path transform="translate(611,529)" d="m0 0h24l4 2 2 7-2 5-4 4-3 1-20 1-1 5-9 1-1-5 3-8 4-1h21l2-1v-4h-23l-1-4z" fill="#FDFFFF"/>
<path transform="translate(328,528)" d="m0 0 3 1-1 5-2 1-20 1-3 4v6l5 2h17l-1 5-3 2h-19l-6-4-3-4 1-9 6-7 4-2z" fill="#FDFFFF"/>
<path transform="translate(439,529)" d="m0 0h23l-1 4-4 2-18 1-3 3v8l4 1h18l-1 5-4 2h-18l-6-3-3-5v-8l7-8z" fill="#FDFFFF"/>
<path transform="translate(671,528)" d="m0 0h6l7 6 2 5 5-2 5-5 6-4h6l-1 4-8 7h-2l-1 3-4 4-3 8-7 1-1-1-2-10-9-13z" fill="#FDFFFF"/>
<path transform="translate(339,529)" d="m0 0h31l-1 4-4 2-9 1-4 17-2 2h-6l-1-5 3-14h-9l-1-5z" fill="#FDFFFF"/>
<path transform="translate(652,528)" d="m0 0 4 2-2 17 2 1h15l1 5-5 2h-23l-1-5 3-12 1-8z" fill="#FDFFFF"/>
<path transform="translate(231,529)" d="m0 0h7v7l-3 12h18l1 3-2 3-3 1h-23l-1-3 4-21z" fill="#FDFFFF"/>
<path transform="translate(414,529)" d="m0 0h8l1 3-3 16-2 6-1 1h-7l1-10z" fill="#FDFFFF"/>
</svg>
